<svg xmlns="http://www.w3.org/2000/svg" xmlns:xlink="http://www.w3.org/1999/xlink" viewBox="0 0 1024 1024"><defs><style>.cls-1{fill:none;}.cls-2{stroke:#e0dfde;stroke-miterlimit:10;fill:url(#linear-gradient);}.cls-3{fill:#fff;}</style><linearGradient id="linear-gradient" x1="511.97" y1="896.35" x2="512.34" y2="76.87" gradientUnits="userSpaceOnUse"><stop offset="0" stop-color="#414141"/><stop offset="0.46" stop-color="#4f4f4f"/><stop offset="0.99" stop-color="#646464"/></linearGradient></defs><title>Asset 1</title><g id="Layer_2" data-name="Layer 2"><g id="Layer_1-2" data-name="Layer 1"><rect class="cls-1" width="1024" height="1024"/><path class="cls-2" d="M986.21,830.74c-17.91-99.11-67.17-188-142.57-257.31l-93.9-232.74a45.81,45.81,0,0,0-36.08-28.29l-15.09-2.13c-29-87.52-81.61-167-145.66-219.52a48.32,48.32,0,0,0-61.31,0C412.86,155.36,357.1,246.55,334.18,348L199.86,519.64a46,46,0,0,0-8.63,37.71c-78.35,74-136.67,175.59-153.45,268.29a48.78,48.78,0,0,0,30.35,54.14,455.82,455.82,0,0,0,164.25,30.48,473.05,473.05,0,0,0,178.13-35l218.84,30.87a43.36,43.36,0,0,0,7.19.51l1.85-.05a45.7,45.7,0,0,0,25.77-9.45c43.49,11.62,89.39,18.22,127.47,18.22a455.33,455.33,0,0,0,164.21-30.49A48.68,48.68,0,0,0,986.21,830.74Z"/><path class="cls-3" d="M711.54,347.55l-275.7-40.3q-4.65,10.85-8.65,22l261.27,38.15L553.23,538.57l-29.9,37.86L259.74,538l73.8-93.39q1.09-21.41,4.13-42.4L229.28,539.33a11.77,11.77,0,0,0-2.36,5.48,11.45,11.45,0,0,0,.7,5.92L334.37,819.08q17-3.64,33.89-8.85l-13.41-2L256.39,560.76,520,599.25l98.44,247.52L480.08,826.57q-16.66,9.84-34,18.31l188.78,27.57a10.44,10.44,0,0,0,2.15.12,11.56,11.56,0,0,0,8.56-4.36L810.85,659q-7.68-8.72-15.92-17L639.85,838.27,541.39,590.72l165.16-209L766.4,532.17c12.25,8.15,23.2,15.07,34.21,23.69l-80-201.21A11.46,11.46,0,0,0,711.54,347.55Z"/><path class="cls-3" d="M522.23,116.77a11.38,11.38,0,0,1,7.2,2.57c55.3,45.38,102.94,115.87,130.31,191.88l-25.5-3.54c-24.14-61.27-60.87-117.34-101.64-154.89l-10.36-9.54-10.37,9.54c-90,82.8-137,203.09-128.81,330L384.29,502l18.41-5.48a414.7,414.7,0,0,1,117.2-17.6l8.93.16c5.46.11,10.22.29,14.5.52,3.9.23,7.81.5,11.83.86,1.94.16,3.91.36,5.9.57l.94.1-17.18,22-1.05-.05c-5.3-.33-9.71-.54-13.76-.64-2.8-.1-8.22-.14-8.52-.14-7.66,0-14.35.17-21.17.54a350.67,350.67,0,0,0-50.79,6.7l-12.48,2.17-.37.07-.37.08c-12,2.7-24,6-35.7,9.7l-13,4.14.16.83-46.7-6.62q5.48-2.54,11-4.94l10.21-4.42-1.06-11.07C347.21,352,404.7,209.9,515.08,119.32a11.43,11.43,0,0,1,7.15-2.56"/><path class="cls-3" d="M212.21,588.43l9.43,23.37c-57.46,58.33-104.1,136.32-119.94,201.26l-3.39,13.88,13.62,4.33a397.3,397.3,0,0,0,120.48,18.67c59.69,0,118.45-13.06,174.67-38.81a432.89,432.89,0,0,0,61.61-34.66l16-10.81-14.2-13.12c-46.17-42.67-81.52-94-102.6-148.74l26.27,3.67c21.23,49.06,55.44,95.26,99.37,134.08l10.15,9,10.13-9q7.21-6.39,14-13l9.49,23.53-.46.42-14.22,13.11,16,10.83c4,2.72,7.84,5.2,11.54,7.52l12.06,30-9.85-1.39c-13.88-8-27.26-16.69-39.8-25.73l-9-6.46-9,6.46a464.54,464.54,0,0,1-78.3,45.59c-59.14,27.09-121.07,40.84-184.08,40.84a419,419,0,0,1-151-28,11.74,11.74,0,0,1-7.24-13c14.93-82.46,68.28-176,138-243.78"/><path class="cls-3" d="M949.81,837.32C929.21,723.36,862.88,623.79,763,557a464.43,464.43,0,0,0-73.27-40.08l-10.24-4.45,1.11-11.11c1.47-14.62,2.24-29.31,2.32-44l-21.17,27c-.73,11-2.07,21.15-2.07,21.15-5-1.37-8.95-2.34-12.11-3L633.16,521c2.7.79,5.39,1.6,8,2.45l13.12,4.14L651.61,541a402.07,402.07,0,0,1-13.69,50.77,344.63,344.63,0,0,1-35.41,71.62L613,689.49a378,378,0,0,0,46.51-89.88,426.09,426.09,0,0,0,12.58-45l4.17-18.7,17.32,8.2a450.22,450.22,0,0,1,56.87,32.28c87,58.27,148,144.11,171.86,241.73L925.72,832l-13.61,4.33A396.81,396.81,0,0,1,791.65,855c-32.28,0-68.73-6.55-89.49-10.93l-16,20.44c36.44,8.76,74.57,13.82,105.49,13.82a418.61,418.61,0,0,0,150.94-28A11.68,11.68,0,0,0,949.81,837.32Z"/></g></g></svg>